<svg width="81" height="81" viewBox="0 0 81 81" fill="none" xmlns="http://www.w3.org/2000/svg">
<g filter="url(#filter0_d_331_156)">
<rect x="2" y="2" width="66" height="66" rx="14" fill="#00A6A6" stroke="#246EB9" stroke-width="4"/>
<path fill-rule="evenodd" clip-rule="evenodd" d="M35.0001 14.7002C13.3 14.7002 13.3 14.6415 13.3 36.3709C13.3 58.1002 13.3 58.1002 35.0001 58.1002C56.7001 58.1002 35.3501 58.1002 35.3501 58.1002L40.4522 55.0367H29.6389C29.6389 54.522 29.6022 53.8054 29.6022 51.8654C24.1501 52.8677 22.7395 50.5381 22.3055 49.3191C22.0614 48.6961 21.0035 46.7728 20.0813 46.2581C19.3218 45.8518 18.2368 44.8495 20.0542 44.8224C21.763 44.7953 22.9837 46.3935 23.3906 47.0436C25.3436 50.3213 28.4629 49.4004 29.7107 48.8315C29.9006 47.4229 30.4702 46.4748 31.0941 45.933C26.2658 45.3913 21.2205 43.5222 21.2205 35.2331C21.2205 32.8765 22.0614 30.9261 23.4448 29.4091C23.2278 28.8674 22.4683 26.6461 23.6618 23.6664C23.6618 23.6664 25.4792 23.0976 29.6293 25.8877C31.3653 25.4001 33.2098 25.1563 35.0543 25.1563C36.8988 25.1563 38.7433 25.4001 40.4793 25.8877C44.6294 23.0705 46.4468 23.6664 46.4468 23.6664C47.6403 26.6461 46.8808 28.8674 46.6638 29.4091C48.0472 30.9261 48.8881 32.8494 48.8881 35.2331C48.8881 43.5493 43.8157 45.3913 38.9874 45.933C39.7741 46.6102 40.4522 47.9105 40.4522 49.9421C40.4522 52.8406 40.4522 54.3053 40.4522 55.0367L35.3501 58.1002C56.7001 58.1002 56.7001 58.0415 56.7001 36.3709C56.7001 58.0415 56.7001 14.7002 56.7001 36.3709C56.7001 14.7002 56.7001 14.7002 35.0001 14.7002Z" fill="#246EB9"/>
</g>
<defs>
<filter id="filter0_d_331_156" x="0" y="0" width="81" height="81" filterUnits="userSpaceOnUse" color-interpolation-filters="sRGB">
<feFlood flood-opacity="0" result="BackgroundImageFix"/>
<feColorMatrix in="SourceAlpha" type="matrix" values="0 0 0 0 0 0 0 0 0 0 0 0 0 0 0 0 0 0 127 0" result="hardAlpha"/>
<feOffset dx="10" dy="10"/>
<feGaussianBlur stdDeviation="0.5"/>
<feComposite in2="hardAlpha" operator="out"/>
<feColorMatrix type="matrix" values="0 0 0 0 0 0 0 0 0 0 0 0 0 0 0 0 0 0 0.25 0"/>
<feBlend mode="normal" in2="BackgroundImageFix" result="effect1_dropShadow_331_156"/>
<feBlend mode="normal" in="SourceGraphic" in2="effect1_dropShadow_331_156" result="shape"/>
</filter>
</defs>
</svg>
